<svg width="288" height="144" viewBox="0 0 288 144" fill="none" xmlns="http://www.w3.org/2000/svg">
<path d="M0 8C0 3.58173 3.58172 0 8 0H280C284.418 0 288 3.58172 288 8V136C288 140.418 284.418 144 280 144H8C3.58173 144 0 140.418 0 136V8Z" fill="#1E1928" fill-opacity="0.08"/>
<g clip-path="url(#clip0_1_1403)">
<path fill-rule="evenodd" clip-rule="evenodd" d="M138.925 86.8371H146.909V56.4141H138.925V86.8371Z" fill="#6D6D6D"/>
<path fill-rule="evenodd" clip-rule="evenodd" d="M166.735 80.4284C171.808 80.4284 175.535 76.2762 175.535 71.6151C175.535 66.9536 171.787 62.8408 166.735 62.8408C161.661 62.8408 157.913 66.9536 157.913 71.6151C157.913 76.2762 161.661 80.4284 166.735 80.4284ZM166.797 55.4375C176.363 55.4375 184.067 62.4491 184.067 71.5563C184.067 80.7026 176.301 87.851 166.714 87.851C157.126 87.851 149.361 80.8006 149.361 71.6739C149.361 62.5664 157.23 55.4375 166.797 55.4375ZM184.985 77.635L192.31 75.9889C192.836 79.6445 195.649 80.9653 198.603 80.9653C201.538 80.9653 202.61 79.3192 202.61 78.0368C202.61 77.0033 201.983 75.9889 199.838 75.5871L195.366 74.7639C190.023 73.788 186.24 70.6107 186.24 65.7302C186.24 59.912 191.844 55.8162 198.178 55.8162C206.333 55.8162 209.693 60.6393 210.28 64.6778L203.096 66.5916C202.711 64.1034 201.092 62.3045 198.138 62.3045C195.588 62.3045 194.374 63.9122 194.374 65.137C194.374 66.1514 194.88 67.3189 196.782 67.6634L201.436 68.5055C207.527 69.6157 210.866 73.1372 210.866 77.7115C210.866 82.6879 206.333 87.4726 198.563 87.4726C190.428 87.4726 186.057 83.4341 184.985 77.635Z" fill="#6D6D6D"/>
<path fill-rule="evenodd" clip-rule="evenodd" d="M85.5921 86.8371H77L91.2076 56.4141H99.8407L85.5921 86.8371Z" fill="#878787"/>
<path fill-rule="evenodd" clip-rule="evenodd" d="M126.283 71.2762L136.955 56.3906H127.19L121.435 65.4018L115.812 56.3906H105.916L116.727 71.2762L110.711 79.6184L99.8732 56.4086H91.2391L105.489 86.8325H114.703L121.435 77.1881L128.087 86.8325H137.402L126.283 71.2762Z" fill="#6D6D6D"/>
</g>
<defs>
<clipPath id="clip0_1_1403">
<rect width="230" height="96" fill="white" transform="translate(29 24)"/>
</clipPath>
</defs>
</svg>
