<svg width="288" height="144" viewBox="0 0 288 144" fill="none" xmlns="http://www.w3.org/2000/svg">
<path d="M0 8C0 3.58173 3.58172 0 8 0H280C284.418 0 288 3.58172 288 8V136C288 140.418 284.418 144 280 144H8C3.58173 144 0 140.418 0 136V8Z" fill="#1E1928" fill-opacity="0.08"/>
<g clip-path="url(#clip0_1_1385)">
<path d="M94.2178 64.0964V80.8289C94.2178 82.7109 94.9671 84.5161 96.3008 85.8467C97.6345 87.1776 99.4435 87.9252 101.33 87.9252C103.216 87.9252 105.025 87.1776 106.358 85.8467C107.692 84.5161 108.441 82.7109 108.441 80.8289V64.0964C108.441 62.2143 107.692 60.4093 106.358 59.0785C105.025 57.7477 103.216 57 101.33 57C99.4435 57 97.6345 57.7477 96.3008 59.0785C94.9671 60.4093 94.2178 62.2143 94.2178 64.0964ZM99.3083 80.8289V64.0964C99.3054 63.8276 99.3586 63.5612 99.4649 63.3142C99.5712 63.0671 99.7281 62.8451 99.9254 62.6622C100.123 62.4792 100.357 62.3396 100.611 62.2521C100.866 62.1646 101.136 62.1313 101.404 62.1542C101.662 62.1459 101.919 62.1905 102.159 62.2851C102.399 62.3798 102.617 62.5226 102.799 62.7046C102.982 62.8866 103.125 63.104 103.22 63.3434C103.315 63.5828 103.359 63.8391 103.351 64.0964V80.8289C103.343 81.3416 103.136 81.8312 102.772 82.1937C102.409 82.5563 101.918 82.7633 101.404 82.7711C101.139 82.7811 100.874 82.7388 100.625 82.6464C100.376 82.5543 100.148 82.414 99.953 82.2337C99.7583 82.0531 99.6011 81.8363 99.4904 81.5953C99.38 81.3542 99.318 81.0938 99.3083 80.8289ZM149.465 57.3735H135.092V62.453H139.733V87.4024H144.823V62.453H149.465V57.3735ZM164.437 57.3735V80.8289C164.437 81.344 164.232 81.838 163.867 82.2022C163.502 82.5665 163.007 82.7711 162.491 82.7711C161.974 82.7711 161.479 82.5665 161.114 82.2022C160.749 81.838 160.544 81.344 160.544 80.8289V57.3735H155.304V80.8289C155.304 82.7308 156.061 84.5549 157.409 85.8996C158.757 87.2444 160.584 88 162.491 88C164.397 88 166.224 87.2444 167.572 85.8996C168.92 84.5549 169.677 82.7308 169.677 80.8289V57.3735H164.437ZM211 62.453V57.3735H198.423V87.4024H211V82.3229H203.514V74.5543H208.305V69.4747H203.514V62.453H211ZM130.3 87.4024H124.911L121.168 73.2096C122.101 73.0253 122.942 72.5214 123.543 71.785C124.144 71.0486 124.469 70.1258 124.461 69.1759V64.5446C124.468 64.2682 124.418 63.9935 124.314 63.737C124.211 63.4805 124.057 63.2474 123.861 63.052C123.665 62.8565 123.432 62.7027 123.175 62.5998C122.918 62.4968 122.642 62.4469 122.365 62.453H120.419V87.4024H115.328V57.3735H122.365C124.225 57.3569 126.018 58.0662 127.36 59.3502C128.703 60.6342 129.49 62.3911 129.552 64.2458V69.0265C129.62 70.2672 129.399 71.5068 128.905 72.6475C128.412 73.7882 127.659 74.799 126.707 75.6L130.3 87.4024ZM187.045 57.3735V73.8073L181.804 57.3735H176.564V87.4024H181.804V72.7614L186.596 87.4024H192.285V57.3735H187.045ZM77 57.8217V87.8506H82.39V75.0024H87.3307V69.9229H82.39V62.9012H90.1754V57.8217H77Z" fill="#6D6D6D"/>
</g>
<defs>
<clipPath id="clip0_1_1385">
<rect width="230" height="96" fill="white" transform="translate(29 24)"/>
</clipPath>
</defs>
</svg>
