<svg width="288" height="144" viewBox="0 0 288 144" fill="none" xmlns="http://www.w3.org/2000/svg">
<path d="M0 8C0 3.58173 3.58172 0 8 0H280C284.418 0 288 3.58172 288 8V136C288 140.418 284.418 144 280 144H8C3.58173 144 0 140.418 0 136V8Z" fill="#1E1928" fill-opacity="0.08"/>
<g clip-path="url(#clip0_1_1393)">
<path d="M115.208 49.1567V50.081L116.091 50.2783C117.448 50.608 117.653 51.3999 118.195 53.9065L119.608 60.9534L115.67 81.5372L110.306 55.6739C109.694 52.8363 109.491 50.7256 111.665 50.2634L112.683 50.0662V49.1567H100V50.081L101.29 50.4121C102.581 50.7418 103.123 51.335 104.006 55.228L112.628 94.8784H114.853L120.624 64.9261L127.021 94.8784H128.787L137.071 56.4536C138.023 52.035 138.43 50.7783 140.061 50.3729L141.35 50.0418V49.1567H132.033V50.081L133.458 50.3445C135.496 50.7404 135.97 51.9931 135.019 57.0738L129.94 81.5372L124.795 55.6739C124.239 53.1011 123.912 50.7256 126.153 50.3297L127.647 50.0662V49.1419L115.208 49.1567ZM175.622 49.2811V50.2053L177.319 50.6013C178.811 50.931 179.423 51.4593 179.423 53.3065V85.3046C179.423 88.8666 179.423 93.5514 175.619 93.5514C173.447 93.5514 171.754 91.7042 171.887 90.4502C172.022 88.4058 175.689 88.5368 175.892 85.2384C176.096 82.9412 174.601 81.8602 173.108 81.6752C171.004 81.4116 168.424 83.1264 168.355 86.5572C168.288 90.976 171.275 95 176.365 95C181.997 95 185.682 91.3084 185.682 84.248L185.683 53.3714C185.683 51.5242 186.159 50.9296 187.516 50.6013L189 50.1905V49.2662L175.622 49.2811ZM152.747 49C146.975 49 143.717 53.6849 143.717 59.8196C143.717 71.2338 158.858 75.6538 158.858 85.9464C158.858 90.8286 156.753 93.5326 153.713 93.5326C149.165 93.5326 145.904 88.191 145.091 79.6792H144.073V94.7216H144.888C145.567 92.5596 146.45 92.3474 147.196 92.3474C148.487 92.3474 149.843 94.9824 153.781 94.9824C159.823 94.9824 163.76 89.9044 163.763 82.9074C163.763 69.1852 148.622 65.8206 148.622 55.9901C148.622 53.747 149.3 50.4499 152.696 50.4499C157.586 50.4499 159.691 56.7171 160.505 64.3045H161.523V49.2649H160.708C160.368 50.7161 159.758 51.3755 158.875 51.3755C157.313 51.3755 156.511 49.0014 152.764 49.0014L152.747 49ZM163.677 61.9384V62.1006L163.709 62.0817L163.692 61.9465L163.677 61.9384Z" fill="#666565"/>
</g>
<defs>
<clipPath id="clip0_1_1393">
<rect width="230" height="96" fill="white" transform="translate(29 24)"/>
</clipPath>
</defs>
</svg>
